<svg width="60" height="60" viewBox="0 0 60 60" fill="none" xmlns="http://www.w3.org/2000/svg">
<g id="Icon/color/calendar">
<path id="Vector" d="M50.8333 12.3458H45.8333V10.0541C45.8333 8.84161 44.9833 7.7261 43.7583 7.5321C42.1958 7.2896 40.8333 8.45361 40.8333 9.92075V12.3458H20.8333V10.0541C20.8333 8.84161 19.9833 7.7261 18.7583 7.5321C17.1958 7.2896 15.8333 8.45361 15.8333 9.92075V12.3458H10.8333C9.45825 12.3458 8.33325 13.437 8.33325 14.7708V20.8333H53.3333V14.7708C53.3333 13.437 52.2083 12.3458 50.8333 12.3458Z" fill="#1990FF"/>
<path id="Vector_2" d="M50.8333 52.4999H10.8333C9.45825 52.4999 8.33325 51.4768 8.33325 50.2224V20.8333H53.3333V50.2224C53.3333 51.4768 52.2083 52.4999 50.8333 52.4999Z" fill="#D6EEFF"/>
<path id="Vector 1509" d="M23.3333 34.8352L28.2877 40.5597C28.4152 40.707 28.6413 40.7141 28.7777 40.575L38.3333 30.8333" stroke="#1990FF" stroke-width="5" stroke-linecap="round"/>
</g>
</svg>
