<svg width="60" height="60" viewBox="0 0 60 60" fill="none" xmlns="http://www.w3.org/2000/svg">
<g id="Frame 633/Point" clip-path="url(#clip0_7471_46311)">
<circle id="Ellipse 1867" cx="30" cy="30" r="30" fill="#FFCF39"/>
<circle id="Ellipse 1868" cx="30" cy="30" r="24" fill="#FFB30B"/>
<path id="P" d="M42 27.428C42 28.9932 41.7594 30.375 41.2781 31.5734C40.8188 32.7473 40.1625 33.7255 39.3094 34.5082C38.4781 35.2908 37.4828 35.8899 36.3234 36.3057C35.1859 36.697 33.9391 36.8927 32.5828 36.8927H29.2359V45H23.7234V23.2092H21V18H32.7469C34.1906 18 35.4813 18.2323 36.6188 18.697C37.7781 19.1372 38.7516 19.7731 39.5391 20.6046C40.3266 21.4361 40.9281 22.4389 41.3438 23.6128C41.7812 24.7622 42 26.034 42 27.428ZM36.4219 27.428C36.4219 26.0829 36.0391 25.0679 35.2734 24.3832C34.5078 23.6984 33.4469 23.356 32.0906 23.356H29.2359V31.5H32.2219C33.5562 31.5 34.5844 31.1454 35.3062 30.4361C36.05 29.7024 36.4219 28.6997 36.4219 27.428Z" fill="#FFCF39"/>
</g>
<defs>
<clipPath id="clip0_7471_46311">
<rect width="60" height="60" fill="white"/>
</clipPath>
</defs>
</svg>
