<svg width="60" height="60" viewBox="0 0 60 60" fill="none" xmlns="http://www.w3.org/2000/svg">
<g id="Icon">
<path id="Subtract" fill-rule="evenodd" clip-rule="evenodd" d="M5 1.66669H45.6399V53.918H5V1.66669ZM5.00037 17.0371V1.66904H20.6311L5.00037 17.0371Z" fill="white"/>
<path id="Intersect" d="M20 16.7611V1.76111L5 16.7611H20Z" fill="#BADCFF"/>
<g id="Group 1000003816">
<path id="&#237;&#140;&#168;&#236;&#138;&#164; 494" d="M36.6708 38.3721C38.186 38.3722 39.6673 37.923 40.9272 37.0813C42.1871 36.2396 43.1692 35.0431 43.7491 33.6433C44.3291 32.2434 44.4809 30.7031 44.1853 29.2169C43.8898 27.7308 43.1602 26.3657 42.0888 25.2942C41.0175 24.2227 39.6524 23.493 38.1663 23.1974C36.6802 22.9017 35.1398 23.0534 33.7399 23.6332C32.34 24.213 31.1435 25.195 30.3017 26.4548C29.4598 27.7147 29.0105 29.1959 29.0105 30.7111C29.0104 31.7171 29.2085 32.7133 29.5934 33.6428C29.9783 34.5722 30.5426 35.4168 31.2539 36.1282C31.9652 36.8396 32.8097 37.4039 33.7392 37.7889C34.6686 38.1739 35.6648 38.3721 36.6708 38.3721Z" fill="#398DFD"/>
<path id="&#237;&#140;&#168;&#236;&#138;&#164; 495" d="M53.1582 52.2771C52.5644 49.4029 51.102 46.7805 48.9688 44.7648C48.8351 44.6443 48.6988 44.5257 48.5597 44.4089C45.7297 42.0636 41.4585 40.5726 36.682 40.5794C31.2279 40.5869 26.4446 42.545 23.7094 45.4915L23.6412 45.5597C23.5731 45.6279 23.5151 45.7029 23.4497 45.7738C21.7144 47.6415 20.5725 49.9822 20.1683 52.4994C20.1151 52.8468 20.1779 53.2021 20.347 53.5102C20.5161 53.8183 20.7821 54.0621 21.1037 54.2038C21.4235 54.3456 21.7602 54.4799 22.1045 54.6129C25.9108 56.0677 31.1611 56.8961 36.9452 56.744C42.7034 56.5927 47.8854 56.0064 51.6065 54.3654C51.8388 54.2631 52.066 54.1588 52.2883 54.0524C52.6106 53.8967 52.8715 53.6376 53.0294 53.3163C53.1873 52.9951 53.2331 52.6302 53.1596 52.2799" fill="#398DFD"/>
</g>
</g>
</svg>
