<svg width="256" height="256" viewBox="0 0 256 256" fill="none" xmlns="http://www.w3.org/2000/svg">
<g id="Logo">
<rect width="256" height="256" rx="56" fill="#1990FF"/>
<path id="Vector" d="M169.746 63.269C167.738 61.2518 164.959 60 161.894 60C155.915 60 151.047 64.7459 150.805 70.6895C143.607 66.3759 135.119 64.0074 126.038 64.3046C102.445 65.0791 83.164 84.3057 82.1959 107.99C81.1381 134.07 101.854 155.539 127.571 155.539C135.45 155.539 142.863 153.531 149.317 149.983C149.981 149.622 150.788 150.082 150.788 150.838C150.788 163.671 140.703 174.477 127.939 174.684C123.51 174.757 119.369 173.577 115.819 171.479C111.813 169.11 106.775 169.416 103.252 172.469L102.858 172.811C97.1566 177.764 98.0261 186.842 104.516 190.696C111.445 194.803 119.548 197.117 128.199 197C153.172 196.658 173 175.675 173 150.577V71.1668C173 68.0779 171.754 65.2862 169.746 63.269ZM129.507 133.142C115.183 134.304 103.306 122.381 104.453 107.981C105.359 96.6792 114.475 87.5387 125.733 86.6652C140.022 85.5575 151.836 97.4357 150.725 111.772C149.846 123.065 140.757 132.224 129.516 133.142H129.507Z" fill="white"/>
<g id="Group 7">
<path id="Vector_2" d="M84.5803 174.189C92.0805 174.189 98.1606 168.081 98.1606 160.546C98.1606 153.011 92.0805 146.903 84.5803 146.903C77.0801 146.903 71 153.011 71 160.546C71 168.081 77.0801 174.189 84.5803 174.189Z" fill="#FFB950"/>
</g>
</g>
</svg>
